<svg t="1697609528925" class="icon" viewBox="0 0 1024 1024" version="1.1" xmlns="http://www.w3.org/2000/svg" p-id="14386" width="200" height="200"><path d="M511.987286 0.059561C232.220367-2.773435 3.071924 220.316491 0 498.49625 1.058107 715.101004 142.434863 906.311189 350.028641 971.947959c25.599364 4.642018 34.8834-10.632269 34.8834-24.063402v-84.682697c-142.417797 30.07072-172.676245-66.660745-172.676245-66.660745a132.434045 132.434045 0 0 0-56.77939-73.111784c-46.539644-30.548575 3.720441-30.087786 3.720441-30.087786a107.51733 107.51733 0 0 1 78.197525 51.369391c30.036587 51.813113 96.304808 70.142258 148.954168 41.19791a107.568529 107.568529 0 0 1 32.562391-66.643678c-113.55878-12.509556-232.715288-55.072766-232.715288-246.214686a191.432046 191.432046 0 0 1 51.659517-134.686789 174.058611 174.058611 0 0 1 5.119873-131.444202c18.841132-41.47097 43.297058-13.414067 139.635999 50.908602a499.904386 499.904386 0 0 1 255.993643 0c97.738373-64.339736 139.635999-50.908602 139.635999-50.908602a174.058611 174.058611 0 0 1 5.119873 131.444202 191.500311 191.500311 0 0 1 54.441315 133.748146c0 191.619775-120.061018 233.722196-232.698222 246.231751a115.333669 115.333669 0 0 1 34.900467 92.550235v136.529943c0 16.212931 9.301102 29.166209 34.900467 24.063403 206.979393-66.04636 347.810029-256.846955 349.089997-472.990921-3.071924-278.179759-232.220367-501.269685-511.987285-498.436689" fill="#000000" p-id="14387"></path></svg>